# xmcd CD database file
#
# Track frame offsets:
#	150
#	13351
#	33680
#	51995
#	66044
#	84869
#	101609
#	120610
#	136509
#	153035
#	170378
#	189108
#	210588
#	227583
#	244738
#	261941
#	274654
#	288328
#	305427
#	325222
#
# Disc length: 4516 seconds
#
# Revision: 0
# Processed by: cddbd v1.5.2PL0 Copyright (c) Steve Scherf et al.
# Submitted via: CDex 1.51
#
DISCID=0b11a214
DTITLE=The Real Book Play-Along - Volume II
DYEAR=2010
DGENRE=Jazz
TTITLE0=Mercy, Mercy, Mercy
TTITLE1=Moon River
TTITLE2=Moonglow
TTITLE3=Moose The Mooche
TTITLE4=More Than You Know
TTITLE5=Morning Dance
TTITLE6=Moten Swing
TTITLE7=Move
TTITLE8=My Little Suede Shoes
TTITLE9=My Old Flame
TTITLE10=Nature Boy
TTITLE11=The Nearness Of You
TTITLE12=Night Song
TTITLE13=No Moe
TTITLE14=Now See How You Are
TTITLE15=Now's The Time
TTITLE16=Nutville
TTITLE17=Oh, What A Beautiful Mornin'
TTITLE18=Old Devil Moon
TTITLE19=On The Sunny Side Of The Street
EXTD=YEAR: 2010
EXTT0=
EXTT1=
EXTT2=
EXTT3=
EXTT4=
EXTT5=
EXTT6=
EXTT7=
EXTT8=
EXTT9=
EXTT10=
EXTT11=
EXTT12=
EXTT13=
EXTT14=
EXTT15=
EXTT16=
EXTT17=
EXTT18=
EXTT19=
PLAYORDER=
